<svg id="Layer_1" data-name="Layer 1" xmlns="http://www.w3.org/2000/svg" viewBox="0 0 939.71 938"><defs><style>.cls-1{fill:#295da8;}.cls-1,.cls-2{stroke:none;stroke-miterlimit:10;stroke-width:20px;}.cls-2{fill:#2fa649;}</style></defs><circle class="cls-1" cx="470.71" cy="469" r="439"/><path class="cls-2" d="M896,301c-11.58-32.21-51.29-76.23-82-99a851.3,851.3,0,0,0-76-50c-110.73,21.38-228.21,71.31-268,185C414.86,494.56,212.51,508,102.09,502.92,93.71,563.41,100.66,635.7,130,699c43.87,94.63,131,154,131,154,30.52-44.88,63.48-67.91,124-60,127.86,16.72,182,23,182,23s170.52,3.52,147.26-312.24c-14.49-196.65,96-225.84,181.45-219.88h0" transform="translate(-68.79 -71.5)"/><path class="cls-2" d="M879.64,818c-88.45-96.51-86.53-335.86,97.56-311.61C977.2,506.43,990.28,710.08,879.64,818Z" transform="translate(-68.79 -71.5)"/></svg>