<?xml version="1.0" encoding="utf-8"?>
<!-- Generator: Adobe Illustrator 26.0.3, SVG Export Plug-In . SVG Version: 6.00 Build 0)  -->
<svg version="1.1" xmlns="http://www.w3.org/2000/svg" xmlns:xlink="http://www.w3.org/1999/xlink" x="0px" y="0px"
	 viewBox="0 0 900 600" style="enable-background:new 0 0 900 600;" xml:space="preserve">
<style type="text/css">
	.st0{fill:#CCCCCC;}
	.st1{fill:#959595;}
	.st2{fill:#616161;}
	.st3{fill:#323232;}
</style>
<g id="visual">
	<path id="Lightest_Gray" class="st0" d="M0,293.8l16.7-0.3c16.6-0.3,50-1,83.3-2.6c33.3-1.6,66.7-4.2,100-2.1
		c33.3,2,66.7,8.7,100,11.3c33.3,2.7,66.7,1.4,100-0.1c33.3-1.5,66.7-3.2,100-7.5c33.3-4.3,66.7-11.1,100-10.7
		c33.3,0.5,66.7,8.2,100,6.4c33.3-1.9,66.7-13.2,100-14.5s66.7,7.5,83.3,11.9L900,290v112.5h-16.7c-16.6,0-50,0-83.3,0
		s-66.7,0-100,0s-66.7,0-100,0s-66.7,0-100,0s-66.7,0-100,0s-66.7,0-100,0s-66.7,0-100,0s-66.7,0-100,0s-66.7,0-83.3,0H0V293.8z"/>
	<path id="Light_Gray" class="st1" d="M0,292.5l16.7,0.8c16.6,0.9,50,2.6,83.3,4c33.3,1.4,66.7,2.4,100,6.2
		c33.3,3.7,66.7,10.2,100,14.1c33.3,3.9,66.7,5.5,100,3.6c33.3-1.8,66.7-6.9,100-10.6c33.3-3.6,66.7-5.8,100-7.8
		c33.3-2.1,66.7-4,100-4s66.7,1.9,100,2.4c33.3,0.4,66.7-0.6,83.3-1.2l16.7-0.5v102.9h-16.7c-16.6,0-50,0-83.3,0s-66.7,0-100,0
		s-66.7,0-100,0s-66.7,0-100,0s-66.7,0-100,0s-66.7,0-100,0s-66.7,0-100,0s-66.7,0-100,0s-66.7,0-83.3,0H0V292.5z"/>
	<path id="Gray" class="st2" d="M0,341.4l16.7-4.8c16.6-4.8,50-14.5,83.3-16.5c33.3-2,66.7,3.5,100,3.5c33.3-0.1,66.7-5.9,100-6.4
		c33.3-0.4,66.7,4.5,100,4.4c33.3-0.1,66.7-5.3,100-4.4c33.3,0.9,66.7,7.7,100,8c33.3,0.2,66.7-6.2,100-8.8s66.7-1.3,100,3.3
		c33.3,4.6,66.7,12.5,83.3,16.5l16.7,4v62.4h-16.7c-16.6,0-50,0-83.3,0s-66.7,0-100,0s-66.7,0-100,0s-66.7,0-100,0s-66.7,0-100,0
		s-66.7,0-100,0s-66.7,0-100,0s-66.7,0-100,0s-66.7,0-83.3,0H0V341.4z"/>
	<path id="Dark_Gray" class="st3" d="M0,353l16.7-1.6c16.6-1.6,50-4.8,83.3-7.7s66.7-5.5,100-3.3c33.3,2.2,66.7,9,100,9
		s66.7-6.8,100-10.3c33.3-3.4,66.7-3.4,100-0.3c33.3,3.2,66.7,9.3,100,10.9c33.3,1.5,66.7-1.7,100-2.1s66.7,2.3,100,4.4
		c33.3,2.2,66.7,3.9,83.3,4.8l16.7,0.8v45h-16.7c-16.6,0-50,0-83.3,0s-66.7,0-100,0s-66.7,0-100,0s-66.7,0-100,0s-66.7,0-100,0
		s-66.7,0-100,0s-66.7,0-100,0s-66.7,0-100,0s-66.7,0-83.3,0H0V353z"/>
	<path id="Black" d="M0,360.7l16.7,1.9c16.6,1.9,50,5.8,83.3,7.9c33.3,2.2,66.7,2.6,100,3.5s66.7,2.5,100,0.9s66.7-6.4,100-6.9
		s66.7,3.1,100,4.7c33.3,1.6,66.7,1.2,100,0.3c33.3-0.8,66.7-2.1,100-2.8c33.3-0.6,66.7-0.6,100,0.8c33.3,1.4,66.7,4.2,83.3,5.5
		l16.7,1.4v24.4h-16.7c-16.6,0-50,0-83.3,0s-66.7,0-100,0s-66.7,0-100,0s-66.7,0-100,0s-66.7,0-100,0s-66.7,0-100,0s-66.7,0-100,0
		s-66.7,0-100,0s-66.7,0-83.3,0H0V360.7z"/>
</g>
<g id="Layer_2">
	<rect x="-24" y="384.5" width="1115" height="543"/>
</g>
</svg>
