<?xml version="1.0" encoding="utf-8"?>
<!-- Generator: Adobe Illustrator 26.1.0, SVG Export Plug-In . SVG Version: 6.00 Build 0)  -->
<svg version="1.1" id="Layer_1" xmlns="http://www.w3.org/2000/svg" xmlns:xlink="http://www.w3.org/1999/xlink" x="0px" y="0px"
	 viewBox="0 0 967.2 556.6" style="enable-background:new 0 0 967.2 556.6;" xml:space="preserve">
<style type="text/css">
	.st0{fill:#FFFFFF;}
</style>
<path class="st0" d="M243.8,0v264.9h-52.6V90.3l-36.6,174.6H90.7l-37-174.6v174.6H1.2V0h72.9l48.6,215.2L170.9,0H243.8z"/>
<path class="st0" d="M338.4,215.9H426v49H285.8V0H426v49h-87.7v58.9h73V157h-73V215.9z"/>
<path class="st0" d="M616,0.2h41.8l-40.1,207.2H563L522.8,0.2h41.6c7.5,38.1,16.1,94,25.8,167.8C600.1,94.1,608.7,38.2,616,0.2z"/>
<path class="st0" d="M458.9,265.1V0.2h52.6v215.9h151.2v49H458.9z"/>
<path class="st0" d="M699.4,264.9V0H752v264.9H699.4z"/>
<path class="st0" d="M846.5,94.2v170.6h-52.6V0h73l43,171.4V0h52.6v264.9h-72.8L846.5,94.2z"/>
<path class="st0" d="M102.4,340.8H52.6v41.8c0,11.4,8.3,17.1,24.9,17.1c21.7,0,39.8,5.8,54.3,17.4c15.4,12.3,23.2,28.6,23.2,48.8
	v54.6c0,10-3.9,18.6-11.6,25.7c-7.4,6.9-17.1,10.7-27.2,10.5H38.8c-10.1,0.2-19.9-3.6-27.2-10.5C3.9,539,0,530.5,0,520.5v-53.4h52.6
	v40.5h49.8v-41.8c0-11.4-8.3-17.1-24.9-17.1c-21.7,0-39.8-5.8-54.3-17.4C7.7,419.1,0,402.8,0,382.5v-54.6c0-10,3.9-18.6,11.6-25.7
	c7.4-6.9,17.1-10.7,27.2-10.5h77.3c10.1-0.2,19.9,3.6,27.2,10.5c7.7,7.1,11.6,15.7,11.6,25.7v53.2h-52.6L102.4,340.8z"/>
<path class="st0" d="M241.9,448.8v107.9h-52.6V291.8h52.6v107.9h49.8V291.8h52.6v264.9h-52.6V448.8H241.9z"/>
<path class="st0" d="M386.2,556.6V291.8h52.6v264.9H386.2z"/>
<path class="st0" d="M533.4,507.6H730v49H480.8V291.8H730v49H533.4v58.9h182v49.2h-182V507.6z"/>
<path class="st0" d="M763.4,556.6V291.8H816v215.9h151.2v49H763.4z"/>
<path class="st0" d="M827.3,291.8h90.9c7.9-0.1,15.5,2.8,21.3,8.2c5.8,5,9.1,12.4,9.1,20.1v127.1c0,15.8-6,28.6-18.1,38.2
	C919.1,494.4,905,499,888,499h-60.6V291.8z M868.5,330.1v130.5H888c13,0,19.5-4.5,19.5-13.5V330.1H868.5z"/>
</svg>
