<svg id="Layer_1" data-name="Layer 1" xmlns="http://www.w3.org/2000/svg" viewBox="0 0 967.2 556.63"><defs><style>.cls-1{fill:#231f20;}</style></defs><path class="cls-1" d="M300.15,261.37V526.25h-52.6V351.69L210.92,526.25H147.05l-37-174.56V526.25H57.5V261.37h72.95L179,476.62,227.2,261.37Z" transform="translate(-56.32 -261.37)"/><path class="cls-1" d="M394.71,477.25h87.66v49H342.11V261.37H482.37v49H394.71v58.86h73v49.15h-73Z" transform="translate(-56.32 -261.37)"/><path class="cls-1" d="M672.34,261.56h41.77L674.06,468.78H619.31L579.14,261.56h41.64Q632,318.64,646.62,429.35,661.32,318.52,672.34,261.56Z" transform="translate(-56.32 -261.37)"/><path class="cls-1" d="M515.25,526.44V261.56h52.6V477.44H719.08v49Z" transform="translate(-56.32 -261.37)"/><path class="cls-1" d="M755.69,526.25V261.37h52.6V526.25Z" transform="translate(-56.32 -261.37)"/><path class="cls-1" d="M902.85,355.61V526.25h-52.6V261.37h73l43,171.42V261.37h52.6V526.25h-72.8Z" transform="translate(-56.32 -261.37)"/><path class="cls-1" d="M158.71,602.12H108.92v41.8q0,17.07,24.9,17.06,32.55,0,54.32,17.38,23.16,18.46,23.17,48.84v54.64q0,15-11.59,25.67A38.93,38.93,0,0,1,172.48,818H95.15a38.93,38.93,0,0,1-27.24-10.49q-11.58-10.65-11.59-25.67V728.45h52.6V769h49.79V727.2q0-17.06-24.89-17.06-32.56,0-54.33-17.38Q56.33,674.3,56.32,643.92V589.28q0-15,11.59-25.67a38.93,38.93,0,0,1,27.24-10.49h77.33a38.93,38.93,0,0,1,27.24,10.49q11.58,10.65,11.59,25.67v53.23h-52.6Z" transform="translate(-56.32 -261.37)"/><path class="cls-1" d="M298.19,710.14V818h-52.6V553.12h52.6V661H348V553.12h52.6V818H348V710.14Z" transform="translate(-56.32 -261.37)"/><path class="cls-1" d="M442.53,818V553.12h52.6V818Z" transform="translate(-56.32 -261.37)"/><path class="cls-1" d="M589.68,769H786.36v49H537.08V553.12H786.36v49H589.68V661h182v49.16h-182Z" transform="translate(-56.32 -261.37)"/><path class="cls-1" d="M819.7,818V553.12h52.6V769h151.23v49Z" transform="translate(-56.32 -261.37)"/><path class="cls-1" d="M883.65,553.12h90.87a30.44,30.44,0,0,1,21.31,8.21,26.29,26.29,0,0,1,9.06,20.08V708.54q0,23.76-18.12,38.21-17,13.59-42.5,13.59H883.65Zm41.15,38.33V722h19.47q19.47,0,19.47-13.47V591.45Z" transform="translate(-56.32 -261.37)"/></svg>