<?xml version="1.0" encoding="utf-8"?>
<!-- Generator: Adobe Illustrator 26.0.3, SVG Export Plug-In . SVG Version: 6.00 Build 0)  -->
<svg version="1.1" id="Layer_3" xmlns="http://www.w3.org/2000/svg" xmlns:xlink="http://www.w3.org/1999/xlink" x="0px" y="0px"
	 viewBox="0 0 1080 1080" style="enable-background:new 0 0 1080 1080;" xml:space="preserve">
<style type="text/css">
	.st0{fill:#FFFFFF;stroke:#FFFFFF;stroke-width:60;stroke-linecap:round;stroke-linejoin:round;stroke-miterlimit:10;}
	.st1{fill:#FFFFFF;}
</style>
<g id="Layer_1">
	<line class="st0" x1="270.3" y1="307.3" x2="840.6" y2="877.6"/>
	
		<rect x="195.7" y="369.8" transform="matrix(0.7071 -0.7071 0.7071 0.7071 -201.9485 344.0702)" class="st0" width="237.3" height="92.1"/>
	<polygon class="st0" points="365.7,299.4 441.9,288.3 430.8,364.5 	"/>
</g>
<g id="Layer_2">
	<g>
		<path class="st1" d="M874.8,478.3c-36.1,36.1-90.6,42.6-133.4,19.5c-9.4-5.1-18.2-11.6-26.2-19.5c-7.9-7.9-14.5-16.8-19.5-26.2
			c-23.1-42.7-16.6-97.2,19.5-133.4c27.1-27.1,64.7-37.6,99.8-31.2L744.5,358c-14.7,14.7-14.7,38.5,0,53.2l37.7,37.7
			c14.7,14.7,38.5,14.7,53.2,0l70.6-70.6C912.4,413.5,901.9,451.1,874.8,478.3z"/>
		<path class="st1" d="M904.2,507.7c-50,50-126.1,58.5-185,25.4c-12-6.7-23.3-15.2-33.5-25.4c-10.2-10.2-18.7-21.5-25.4-33.5
			c-33.1-58.8-24.6-134.9,25.4-185c44-44,108.2-55.9,163.1-35.6L744.5,358c-14.7,14.7-14.7,38.5,0,53.2l37.7,37.7
			c14.7,14.7,38.5,14.7,53.2,0l104.4-104.4C960.1,399.5,948.2,463.7,904.2,507.7z"/>
	</g>
	<path class="st1" d="M264.8,928.6c-16.3-16.3-16.3-42.6,0-58.9L670.5,464c16.3-16.3,42.6-16.3,58.9,0c16.3,16.3,16.3,42.6,0,58.9
		L323.7,928.6C307.5,944.9,281.1,944.9,264.8,928.6z"/>
</g>
</svg>
